<svg xmlns="http://www.w3.org/2000/svg" viewBox="0 0 1080 1080"><defs><style>.cls-1{fill:#fff;}.cls-2{fill:none;stroke:#fff;stroke-miterlimit:10;stroke-width:50px;}</style></defs><title>Asset 2</title><g id="Layer_2" data-name="Layer 2"><g id="Layer_1-2" data-name="Layer 1"><path class="cls-1" d="M540,50A490.14,490.14,0,0,1,730.71,991.51a490.13,490.13,0,0,1-381.42-903A486.8,486.8,0,0,1,540,50m0-50C241.77,0,0,241.77,0,540s241.77,540,540,540,540-241.77,540-540S838.23,0,540,0Z"/><path class="cls-1" d="M540,50c37.27,0,73.81,11.53,108.6,34.28,35.72,23.35,68.15,57.35,96.42,101,29.29,45.28,52.37,98.33,68.61,157.68,17,62.28,25.68,128.56,25.68,197s-8.64,134.72-25.68,197C797.39,796.35,774.31,849.4,745,894.68c-28.27,43.69-60.7,77.68-96.42,101C613.81,1018.47,577.27,1030,540,1030s-73.81-11.53-108.6-34.28c-35.72-23.36-68.15-57.35-96.42-101C305.69,849.4,282.61,796.35,266.37,737c-17-62.28-25.68-128.56-25.68-197s8.64-134.72,25.68-197c16.24-59.35,39.32-112.4,68.61-157.68,28.27-43.69,60.7-77.69,96.42-101C466.19,61.53,502.73,50,540,50m0-50C347.08,0,190.69,241.77,190.69,540S347.08,1080,540,1080,889.31,838.23,889.31,540,732.92,0,540,0Z"/><line class="cls-2" x1="1063.96" y1="545.35" x2="16.04" y2="545.35"/><line class="cls-2" x1="974.85" y1="270.89" x2="112.28" y2="270.89"/><line class="cls-2" x1="981.98" y1="805.54" x2="112.28" y2="805.54"/><line class="cls-2" x1="540" y1="21.39" x2="540" y2="1069.31"/></g></g></svg>